<svg width="58" height="98" viewBox="0 0 58 98" fill="none" xmlns="http://www.w3.org/2000/svg">
<path d="M23.5625 0.601562C24.4416 0.597695 25.3207 0.593828 26.2265 0.589844C27.1418 0.601445 28.057 0.613047 29 0.625C30.3728 0.607598 30.3728 0.607598 31.7734 0.589844C32.6525 0.593711 33.5317 0.597578 34.4375 0.601562C35.6421 0.606638 35.6421 0.606638 36.871 0.611816C39.5011 1.09138 40.3951 1.89632 42 4C42.2929 6.26172 42.2929 6.26172 42.1875 8.6875C42.1468 9.89986 42.1468 9.89986 42.1054 11.1367C42.0532 12.059 42.0532 12.059 42 13C41.01 13.33 40.02 13.66 39 14C39 15.65 39 17.3 39 19C39.8875 19.0387 39.8875 19.0387 40.7929 19.0781C46.0316 19.4541 49.3392 19.9209 53 24C57.004 29.4661 57.4422 34.611 57.4335 41.2656C57 44 57 44 55.4978 45.8818C53.7427 48.3639 53.6144 49.6208 53.6015 52.625C53.5976 53.4964 53.5938 54.3678 53.5898 55.2656C53.6014 56.168 53.613 57.0703 53.625 58C53.6134 58.9023 53.6018 59.8047 53.5898 60.7344C53.5956 62.0415 53.5956 62.0415 53.6015 63.375C53.6049 64.1665 53.6083 64.958 53.6118 65.7734C54.0898 68.5155 55.3425 69.7989 57 72C57.6251 75.2911 57.5096 78.5931 57.5 81.9375C57.5283 82.8315 57.5567 83.7254 57.5859 84.6465C57.5898 85.9488 57.5898 85.9488 57.5937 87.2773C57.6008 88.0636 57.6079 88.8498 57.6152 89.6599C56.6331 93.3952 55.1234 94.7449 52 97C48.539 97.7294 45.1519 97.7011 41.625 97.6641C40.1218 97.6712 40.1218 97.6712 38.5883 97.6786C36.4736 97.682 34.3588 97.6728 32.2441 97.6519C29.0105 97.6251 25.7803 97.6516 22.5468 97.6836C20.4895 97.6803 18.4322 97.6739 16.375 97.6641C14.9279 97.6792 14.9279 97.6792 13.4516 97.6947C8.89742 97.6154 6.66477 97.48 2.88863 94.7537C0.934829 91.905 0.375617 90.6696 0.406205 87.2773C0.408784 86.4092 0.411362 85.541 0.414018 84.6465C0.442377 83.7525 0.470737 82.8586 0.499955 81.9375C0.497377 81.0397 0.494799 80.1418 0.492143 79.2168C0.591388 72.5426 0.591388 72.5426 2.50435 70.0022C4.30245 67.595 4.38569 66.3453 4.39839 63.375C4.40226 62.5036 4.40613 61.6322 4.41011 60.7344C4.39851 59.832 4.38691 58.9297 4.37496 58C4.38656 57.0977 4.39816 56.1953 4.41011 55.2656C4.40624 54.3942 4.40238 53.5228 4.39839 52.625C4.39501 51.8335 4.39163 51.042 4.38814 50.2266C3.9102 47.4852 2.71641 46.1502 0.999955 44C-0.0284079 37.5148 0.407818 31.3073 3.81246 25.6211C6.22157 22.3323 8.23039 20.3486 12.3203 19.543C14.5504 19.2808 16.7572 19.0977 19 19C19 17.35 19 15.7 19 14C18.01 13.67 17.02 13.34 16 13C15.9186 11.5634 15.8606 10.1256 15.8125 8.6875C15.7777 7.88699 15.7428 7.08648 15.707 6.26172C16.3133 1.58084 19.2315 0.619811 23.5625 0.601562Z" fill="#B5DCF4"/>
<path d="M23.5625 0.601562C24.4416 0.597695 25.3207 0.593828 26.2265 0.589844C27.1418 0.601445 28.057 0.613047 29 0.625C30.3728 0.607598 30.3728 0.607598 31.7734 0.589844C32.6525 0.593711 33.5317 0.597578 34.4375 0.601562C35.6421 0.606638 35.6421 0.606638 36.871 0.611816C39.5011 1.09138 40.3951 1.89632 42 4C42.2929 6.26172 42.2929 6.26172 42.1875 8.6875C42.1468 9.89986 42.1468 9.89986 42.1054 11.1367C42.0532 12.059 42.0532 12.059 42 13C41.01 13.33 40.02 13.66 39 14C39 15.65 39 17.3 39 19C39.8875 19.0387 39.8875 19.0387 40.7929 19.0781C46.0316 19.4541 49.3392 19.9209 53 24C57.004 29.4661 57.4422 34.611 57.4335 41.2656C57 44 57 44 55.4978 45.8818C53.7427 48.3639 53.6144 49.6208 53.6015 52.625C53.5976 53.4964 53.5938 54.3678 53.5898 55.2656C53.6014 56.168 53.613 57.0703 53.625 58C53.6134 58.9023 53.6018 59.8047 53.5898 60.7344C53.5956 62.0415 53.5956 62.0415 53.6015 63.375C53.6049 64.1665 53.6083 64.958 53.6118 65.7734C54.0898 68.5155 55.3425 69.7989 57 72C57.6251 75.2911 57.5096 78.5931 57.5 81.9375C57.5283 82.8315 57.5567 83.7254 57.5859 84.6465C57.5898 85.9488 57.5898 85.9488 57.5937 87.2773C57.6008 88.0636 57.6079 88.8498 57.6152 89.6599C56.6331 93.3952 55.1234 94.7449 52 97C48.539 97.7294 45.1519 97.7011 41.625 97.6641C40.1218 97.6712 40.1218 97.6712 38.5883 97.6786C36.4736 97.682 34.3588 97.6728 32.2441 97.6519C29.0105 97.6251 25.7803 97.6516 22.5468 97.6836C20.4895 97.6803 18.4322 97.6739 16.375 97.6641C14.9279 97.6792 14.9279 97.6792 13.4516 97.6947C8.89742 97.6154 6.66477 97.48 2.88863 94.7537C0.934829 91.905 0.375617 90.6696 0.406205 87.2773C0.408784 86.4092 0.411362 85.541 0.414018 84.6465C0.442377 83.7525 0.470737 82.8586 0.499955 81.9375C0.497377 81.0397 0.494799 80.1418 0.492143 79.2168C0.591388 72.5426 0.591388 72.5426 2.50435 70.0022C4.30245 67.595 4.38569 66.3453 4.39839 63.375C4.40226 62.5036 4.40613 61.6322 4.41011 60.7344C4.39851 59.832 4.38691 58.9297 4.37496 58C4.38656 57.0977 4.39816 56.1953 4.41011 55.2656C4.40624 54.3942 4.40238 53.5228 4.39839 52.625C4.39501 51.8335 4.39163 51.042 4.38814 50.2266C3.9102 47.4852 2.71641 46.1502 0.999955 44C-0.0284079 37.5148 0.407818 31.3073 3.81246 25.6211C6.22157 22.3323 8.23039 20.3486 12.3203 19.543C14.5504 19.2808 16.7572 19.0977 19 19C19 17.35 19 15.7 19 14C18.01 13.67 17.02 13.34 16 13C15.9186 11.5634 15.8606 10.1256 15.8125 8.6875C15.7777 7.88699 15.7428 7.08648 15.707 6.26172C16.3133 1.58084 19.2315 0.619811 23.5625 0.601562ZM22 14C22 16.64 22 19.28 22 22C21.4315 21.9304 20.863 21.8608 20.2773 21.7891C15.5904 21.4604 12.7402 21.662 9.06246 24.75C5.7774 27.8254 4.14322 30.4114 3.73433 34.9453C3.73949 35.9946 3.74464 37.0439 3.74996 38.125C3.7448 39.1795 3.73964 40.2339 3.73433 41.3203C3.7291 44.1518 3.7291 44.1518 5.99996 46C6.84558 46.165 7.69121 46.33 8.56246 46.5C9.36683 46.665 10.1712 46.83 11 47C11.33 47.66 11.66 48.32 12 49C10.68 49 9.35996 49 7.99996 49C7.99996 54.61 7.99996 60.22 7.99996 66C8.98996 66.33 9.97996 66.66 11 67C11.33 67.66 11.66 68.32 12 69C10.8553 68.9072 10.8553 68.9072 9.68746 68.8125C7.01919 68.7557 7.01919 68.7557 5.35469 70.2244C3.62541 72.4909 3.62625 73.7676 3.63667 76.5977C3.63732 77.4813 3.63796 78.365 3.63863 79.2754C3.65474 80.1951 3.67085 81.1149 3.68746 82.0625C3.68423 82.9861 3.68101 83.9097 3.67769 84.8613C3.41665 89.9593 3.41665 89.9593 5.99996 94C8.04583 94.3053 8.04583 94.3053 10.4179 94.2588C11.7894 94.2682 11.7894 94.2682 13.1887 94.2779C14.1783 94.2738 15.1679 94.2698 16.1875 94.2656C17.2009 94.2675 18.2143 94.2695 19.2585 94.2714C21.4038 94.2728 23.549 94.2691 25.6943 94.2607C28.9865 94.25 32.2781 94.2606 35.5703 94.2734C37.651 94.2721 39.7317 94.2696 41.8125 94.2656C42.8021 94.2697 43.7916 94.2737 44.8112 94.2779C46.1828 94.2684 46.1828 94.2684 47.582 94.2588C48.3887 94.2572 49.1954 94.2556 50.0266 94.254C52.233 94.1743 52.233 94.1743 54 92C54.4487 88.7076 54.324 85.382 54.3125 82.0625C54.3286 81.1428 54.3447 80.223 54.3613 79.2754C54.3619 78.3917 54.3626 77.5081 54.3632 76.5977C54.3662 75.7882 54.3692 74.9788 54.3723 74.1448C54.1284 71.9714 54.1284 71.9714 52.9331 70.231C49.9987 68.3624 47.0707 68.6309 43.707 68.707C43.001 68.7113 42.2949 68.7155 41.5675 68.7199C39.3154 68.7367 37.0643 68.7743 34.8125 68.8125C33.2845 68.8275 31.7565 68.8412 30.2285 68.8535C26.4853 68.8866 22.7428 68.9383 19 69C19 68.01 19 67.02 19 66C29.23 66 39.46 66 50 66C50 60.39 50 54.78 50 49C39.77 49 29.54 49 19 49C19 48.01 19 47.02 19 46C20.4837 46.0236 20.4837 46.0236 21.9975 46.0476C25.6613 46.1018 29.3251 46.1363 32.9892 46.1648C34.5762 46.1799 36.1631 46.2004 37.75 46.2263C40.0287 46.2626 42.3069 46.2797 44.5859 46.293C45.2974 46.3085 46.0089 46.3239 46.742 46.3399C48.9575 46.3755 48.9575 46.3755 52 46C54.9823 41.5265 54.601 37.2443 54 32C51.7026 27.1402 48.8023 24.4012 44 22C41.2366 21.6907 38.7948 21.8073 36 22C36 19.36 36 16.72 36 14C31.38 14 26.76 14 22 14Z" fill="#799BC8"/>
<path d="M22 14C26.62 14 31.24 14 36 14C36 16.64 36 19.28 36 22C37.7944 21.8762 37.7944 21.8762 39.625 21.75C44.1427 21.766 46.5343 23.0069 50 26C53.3897 30.1925 54 31.446 54 37C41.79 37 29.58 37 17 37C17 52.51 17 68.02 17 84C16.01 84 15.02 84 14 84C14 68.49 14 52.98 14 37C10.7 37 7.4 37 4 37C4.37051 30.8248 5.81382 28.2859 10 24C13.2038 21.8641 14.0194 21.7687 17.6875 21.875C18.8999 21.9021 18.8999 21.9021 20.1367 21.9297C21.059 21.9645 21.059 21.9645 22 22C22 19.36 22 16.72 22 14Z" fill="#DCF1FE"/>
<path d="M23.5625 0.601562C24.8812 0.595762 24.8812 0.595762 26.2266 0.589844C27.1418 0.601445 28.057 0.613047 29 0.625C30.3729 0.607598 30.3729 0.607598 31.7734 0.589844C32.6526 0.593711 33.5317 0.597578 34.4375 0.601562C35.6421 0.606638 35.6421 0.606638 36.8711 0.611816C39.5007 1.09129 40.3926 1.89954 42 4C42.3281 6.22656 42.3281 6.22656 42.25 8.625C42.2345 9.42164 42.2191 10.2183 42.2031 11.0391C42 13 42 13 41 14C39.2314 14.0995 37.4589 14.1308 35.6875 14.1328C34.6124 14.1341 33.5373 14.1354 32.4297 14.1367C31.2979 14.1329 30.1661 14.129 29 14.125C27.8682 14.1289 26.7364 14.1327 25.5703 14.1367C24.4952 14.1354 23.4202 14.1341 22.3125 14.1328C21.3186 14.1317 20.3248 14.1306 19.3008 14.1294C17 14 17 14 16 13C15.7969 11.0391 15.7969 11.0391 15.75 8.625C15.7242 7.83352 15.6984 7.04203 15.6719 6.22656C16.3565 1.58071 19.2401 0.619775 23.5625 0.601562Z" fill="#4C78B5"/>
<path d="M24 3.86719C24.8044 3.8659 25.6087 3.86461 26.4375 3.86328C27.2831 3.86715 28.1288 3.87102 29 3.875C30.2684 3.8692 30.2684 3.8692 31.5625 3.86328C32.3669 3.86457 33.1712 3.86586 34 3.86719C34.7425 3.86832 35.485 3.86944 36.25 3.87061C38 4 38 4 39 5C39 7.31 39 9.62 39 12C32.4 12 25.8 12 19 12C19 3.87478 19 3.87478 24 3.86719Z" fill="#86B3EC"/>
<path d="M16.71 92H11.7V78.14H9.54V74.99L12.6 73.37H16.71V92ZM30.4894 85.67C30.4894 90.09 28.5294 92.3 24.6094 92.3C22.7894 92.3 21.0994 91.99 19.5394 91.37L19.8994 86.72C21.9594 87.34 23.3494 87.65 24.0694 87.65C25.0894 87.65 25.5994 87.1 25.5994 86C25.5994 84.88 25.2094 84.32 24.4294 84.32C24.0494 84.32 23.7594 84.52 23.5594 84.92L19.5694 84.32V73.37H29.6494V77.84H24.2194V80.51C24.7394 80.23 25.3994 80.09 26.1994 80.09C29.0594 80.09 30.4894 81.95 30.4894 85.67ZM48.1008 92H38.6208V73.37H43.7508V87.83H48.4008L48.1008 92Z" fill="black"/>
</svg>
