<svg version="1.1" id="Layer_1" xmlns="http://www.w3.org/2000/svg" xmlns:xlink="http://www.w3.org/1999/xlink" x="0px" y="0px"
	 width="100%" viewBox="0 0 576 544" enable-background="new 0 0 576 544" xml:space="preserve">
<path fill="#000000" opacity="1.000000" stroke="none" 
	d="
M577.000000,280.531616 
	C571.528564,283.197021 565.789307,282.273590 560.179443,282.193420 
	C556.132202,282.135620 554.608887,283.600800 554.143799,287.539734 
	C552.588318,300.714294 551.106628,313.917572 548.859619,326.983124 
	C547.465271,335.090698 545.219055,343.137970 542.493530,350.910095 
	C538.508667,362.273682 534.382996,373.581116 529.149414,384.512909 
	C518.960999,405.794403 506.146301,425.231781 490.784943,443.077087 
	C466.001221,471.868378 436.283325,494.163361 401.784363,509.896301 
	C390.080963,515.233521 377.819061,519.245483 365.398438,522.962097 
	C341.916595,529.988525 317.862946,532.759094 293.698364,533.559509 
	C279.729004,534.022217 265.535645,531.880737 251.542480,529.585815 
	C240.060883,527.702881 228.786469,525.006592 217.621002,521.957581 
	C209.020630,519.609009 200.619232,516.338745 192.390625,512.860291 
	C172.745422,504.555786 154.349319,493.957245 137.371780,481.036346 
	C109.680878,459.961945 86.726555,434.676025 69.150894,404.492096 
	C62.970047,393.877289 57.644897,382.899445 52.552612,371.776398 
	C48.397465,362.700378 53.779827,353.742889 62.669533,354.738129 
	C67.173027,355.242340 69.577774,358.283478 71.262352,362.149811 
	C76.482193,374.130096 82.161835,385.874908 88.975639,397.051422 
	C107.435425,427.330566 131.348495,452.450439 160.994827,471.847717 
	C174.641541,480.776581 188.949615,488.646606 204.352264,494.458435 
	C217.145676,499.285706 230.102463,503.127655 243.405731,506.397491 
	C267.035156,512.205383 290.895142,512.539917 314.800354,511.326935 
	C324.263947,510.846741 333.839233,508.913025 343.280518,506.853973 
	C352.490143,504.845398 361.613098,502.545013 370.445007,499.466003 
	C380.544739,495.945007 390.471069,491.732666 400.067657,486.999390 
	C427.336639,473.549805 451.106140,455.384186 471.518250,432.793915 
	C486.748016,415.938904 499.205017,397.331512 509.312531,376.959198 
	C518.068787,359.310364 524.463928,340.905060 528.635864,321.781403 
	C531.071655,310.616058 533.267151,299.295685 532.979736,287.677887 
	C532.878113,283.573303 531.680176,281.897430 527.493896,282.226593 
	C524.015869,282.500092 520.474121,282.008881 517.003784,282.327545 
	C505.420380,283.391113 503.290955,272.804382 506.710449,265.804077 
	C515.293152,248.233765 524.057495,230.750671 532.923645,213.321457 
	C534.930176,209.376984 538.014709,206.112915 542.892944,205.987503 
	C547.553467,205.867676 550.468079,208.655975 552.573608,212.598633 
	C560.987488,228.354126 568.875061,244.370453 576.750427,260.759216 
	C577.000000,267.354401 577.000000,273.708801 577.000000,280.531616 
M552.096802,261.173462 
	C551.566101,253.712662 546.348816,248.471420 543.267700,240.818466 
	C538.850342,248.100540 535.354126,254.318298 532.993347,261.773132 
	C539.631958,262.041412 545.534485,262.417267 552.096802,261.173462 
z"/>
<path fill="#000000" opacity="1.000000" stroke="none" 
	d="
M368.171753,388.000244 
	C368.178009,398.664612 368.099335,408.829956 368.208160,418.993286 
	C368.341919,431.487518 362.884705,440.590393 351.983154,446.553650 
	C347.576508,448.964142 342.694763,449.256836 337.918365,449.275360 
	C307.758972,449.392334 277.598694,449.368896 247.439041,449.278473 
	C231.826996,449.231689 223.704163,441.137665 218.555420,428.286560 
	C217.784897,426.363373 217.842667,424.034515 217.833344,421.891937 
	C217.761719,405.395782 217.708527,388.898987 217.802292,372.403259 
	C217.820328,369.229889 217.054550,366.677917 214.985596,364.212860 
	C210.568954,358.950653 208.418701,352.958923 208.702194,345.851196 
	C209.052505,337.067932 207.770523,328.092041 213.853668,320.515930 
	C215.222397,318.811249 213.917755,317.574188 213.193176,316.049561 
	C206.614975,302.207397 206.134796,288.345245 213.661942,274.675720 
	C214.712799,272.767334 214.727203,271.514191 213.456085,269.758148 
	C210.055740,265.060608 208.302338,259.874451 208.752640,253.902710 
	C209.332535,246.212418 207.266586,238.197937 211.835983,231.039764 
	C212.277359,230.348312 212.299515,229.237030 212.877792,228.808746 
	C218.613083,224.561050 217.837738,218.455032 217.789154,212.479507 
	C217.709244,202.648987 218.270340,192.783691 217.614288,182.996521 
	C217.062439,174.763672 221.568802,170.927750 227.887756,167.779266 
	C235.578720,163.947128 243.280212,160.127441 250.855499,156.074982 
	C255.353714,153.668625 255.521439,145.150513 251.222839,142.326767 
	C247.432266,139.836761 245.289902,136.170502 245.173233,131.955383 
	C244.921310,122.853081 243.965866,113.673668 247.428635,104.779297 
	C250.914978,95.824341 256.708282,89.149948 266.163696,87.215355 
	C283.918976,83.582626 301.891449,83.704773 319.666992,87.113678 
	C328.589691,88.824844 334.428864,95.210442 338.067657,103.281075 
	C342.181427,112.405258 341.343689,122.220535 340.784180,131.823593 
	C340.533752,136.122101 338.527283,140.031616 334.322662,142.484909 
	C330.303864,144.829773 330.531921,153.809433 334.642578,156.013733 
	C342.225647,160.080109 349.844208,164.110306 357.643829,167.734100 
	C364.858551,171.086151 368.766357,175.729782 368.315430,184.307098 
	C367.712677,195.771637 368.285706,207.294525 368.172089,218.790573 
	C368.142242,221.808945 368.960846,224.189255 370.884979,226.507172 
	C375.138519,231.631165 377.512390,237.404587 377.274567,244.319839 
	C376.956665,253.563812 378.358337,263.044861 371.715027,270.979279 
	C370.814667,272.054657 371.676910,273.399109 372.344421,274.653687 
	C379.641052,288.367035 379.534271,302.222168 372.550415,315.964355 
	C371.372498,318.282166 371.743286,319.651855 372.762054,321.821045 
	C379.533875,336.239807 380.060120,350.591095 370.892700,364.267975 
	C369.006775,367.081543 368.051300,369.711029 368.148743,373.005371 
	C368.291595,377.833008 368.175690,382.668274 368.171753,388.000244 
M276.500031,375.298523 
	C265.675385,375.270874 254.848267,375.368500 244.027390,375.152557 
	C239.825684,375.068726 237.943909,376.389679 238.013428,380.833588 
	C238.203583,392.987579 238.035660,405.146790 238.154861,417.302460 
	C238.232101,425.180603 241.952194,428.734070 249.895096,428.737396 
	C278.539062,428.749481 307.183014,428.739410 335.826965,428.708771 
	C344.510895,428.699463 347.803772,425.407104 347.851746,416.628265 
	C347.912720,405.470825 347.885101,394.312775 347.867859,383.155029 
	C347.856445,375.786163 347.278839,375.193359 339.950287,375.199341 
	C319.133545,375.216370 298.316803,375.264130 276.500031,375.298523 
M344.273041,184.316666 
	C335.510010,180.033844 326.630798,175.969299 318.025940,171.389313 
	C312.546783,168.473007 309.388306,163.782654 309.903717,157.121277 
	C310.147186,153.974564 309.879211,150.791321 309.937653,147.626373 
	C309.996765,144.427368 308.451324,143.194138 305.329041,143.229233 
	C296.997192,143.322861 288.663208,143.327499 280.331116,143.253052 
	C277.390320,143.226776 276.030365,144.386612 276.122162,147.386871 
	C276.224060,150.716858 275.890930,154.076065 276.198151,157.380630 
	C276.877472,164.688171 272.807892,168.949921 267.004395,171.929138 
	C258.635590,176.225281 250.123199,180.243103 241.647995,184.329758 
	C239.256714,185.482819 238.209778,187.388916 238.195190,189.913239 
	C238.154724,196.912292 238.224380,203.912338 238.135941,210.910553 
	C238.097565,213.946121 239.531677,215.089279 242.410980,215.020447 
	C246.075729,214.932831 249.743393,214.950699 253.409790,214.951233 
	C282.908325,214.955551 312.407257,214.889465 341.904907,215.056335 
	C346.467285,215.082153 348.168182,213.640228 347.926819,209.038162 
	C347.613037,203.054550 347.821899,197.042755 347.834564,191.043152 
	C347.840027,188.449463 347.545074,186.018738 344.273041,184.316666 
M241.710785,354.666748 
	C245.373459,354.662628 249.036133,354.654266 252.698807,354.655090 
	C283.831482,354.662048 314.964142,354.676758 346.096832,354.674225 
	C353.332184,354.673645 356.817627,351.266296 356.959930,344.104065 
	C356.996307,342.273682 357.017609,340.438446 356.930176,338.610962 
	C356.637939,332.502625 353.614319,329.410370 347.567352,329.302734 
	C340.577026,329.178314 333.583160,329.246918 326.590820,329.245880 
	C298.121887,329.241730 269.652924,329.227783 241.184036,329.263916 
	C238.065735,329.267883 234.646698,328.734161 232.203262,331.293121 
	C227.415344,336.307404 228.406235,342.608673 229.742218,348.314514 
	C230.954987,353.494110 235.533081,355.238861 241.710785,354.666748 
M240.790878,307.838928 
	C275.121582,307.842224 309.452271,307.847321 343.782990,307.842682 
	C345.281250,307.842468 346.791412,307.856781 348.275696,307.686707 
	C354.331909,306.992706 356.746429,304.347595 356.935486,298.269348 
	C356.987274,296.604340 356.974976,294.936096 356.947388,293.270050 
	C356.829712,286.165253 352.935211,282.291809 345.736664,282.287384 
	C310.905945,282.266052 276.075256,282.267120 241.244553,282.293793 
	C233.587463,282.299652 229.320679,285.881714 229.042725,292.346588 
	C228.525223,304.383240 230.303391,306.924805 240.790878,307.838928 
M356.874786,252.952713 
	C356.889008,252.286636 356.912292,251.620605 356.916107,250.954468 
	C356.987427,238.472214 355.596039,237.040009 343.335938,237.042053 
	C316.188354,237.046555 289.040771,237.062424 261.893188,237.066193 
	C254.065521,237.067291 246.235962,236.930923 238.410782,237.064453 
	C231.740036,237.178268 229.243851,239.871307 229.075409,246.641556 
	C229.038147,248.139282 229.052963,249.640045 229.097366,251.137817 
	C229.304947,258.137848 232.949707,261.985687 239.950272,261.997772 
	C275.258667,262.058746 310.567261,262.033783 345.875732,261.971985 
	C352.103821,261.961090 354.679077,259.884155 356.874786,252.952713 
M291.500000,122.721169 
	C299.308167,122.738380 307.116425,122.778870 314.924438,122.751457 
	C316.335907,122.746498 317.984314,123.218552 318.873291,121.452003 
	C322.054199,115.131317 317.468018,107.247543 310.432953,107.184006 
	C299.469177,107.084991 288.503784,107.111771 277.539368,107.154770 
	C268.458984,107.190376 267.002747,108.914101 267.007874,118.028603 
	C267.010010,121.826675 268.481506,122.917595 272.061584,122.790077 
	C278.200775,122.571419 284.353180,122.723328 291.500000,122.721169 
z"/>
<path fill="#000000" opacity="1.000000" stroke="none" 
	d="
M62.681961,203.817566 
	C62.028919,210.034851 59.735382,215.451675 58.540585,221.149323 
	C56.146584,232.565628 54.364365,243.977585 53.893291,255.638351 
	C53.701973,260.374207 55.215347,262.425201 60.101372,262.020996 
	C63.408459,261.747467 66.771744,261.875946 70.092110,262.094574 
	C78.576248,262.653259 83.071869,270.225128 79.349297,277.831482 
	C70.750221,295.402008 62.130398,312.964233 53.279594,330.408386 
	C51.172943,334.560425 48.246300,338.217621 42.699818,338.374908 
	C36.771320,338.543030 33.962559,334.427551 31.821466,330.213684 
	C22.917696,312.689972 14.267642,295.034851 5.729554,277.329071 
	C2.186486,269.981659 5.821080,263.387787 13.890382,262.342773 
	C18.162457,261.789551 22.536650,261.817322 26.857559,261.911713 
	C30.592949,261.993225 32.467175,260.354706 32.815208,256.762634 
	C33.151989,253.286682 33.689983,249.808578 33.716251,246.328217 
	C33.798527,235.427826 37.054764,225.073730 38.851212,214.467636 
	C40.380661,205.437836 43.260899,196.798615 46.039543,188.161774 
	C48.666584,179.996170 52.013081,172.024567 55.548389,164.195801 
	C65.370636,142.444916 77.989212,122.391129 93.444305,104.201309 
	C112.860878,81.349045 135.300018,61.925838 161.259537,46.867363 
	C180.163376,35.901711 200.202454,27.600204 221.269638,21.318756 
	C243.633148,14.650795 266.476868,11.762976 289.460907,11.319004 
	C305.105560,11.016803 320.928101,12.440823 336.622559,15.065714 
	C347.287476,16.849413 357.560059,19.858374 367.980652,22.304792 
	C376.886078,24.395500 385.493408,28.034363 393.970612,31.609650 
	C409.037781,37.964291 423.484802,45.610237 437.039398,54.782566 
	C467.977234,75.718109 493.886230,101.556801 513.657532,133.444504 
	C522.141663,147.127914 529.684631,161.219650 535.256775,176.332291 
	C537.068970,181.247177 535.470581,185.037842 530.394226,188.538422 
	C526.238831,191.403931 522.705505,190.269073 519.108521,187.279785 
	C515.448120,184.237778 513.965027,179.865234 512.269287,175.878998 
	C500.360321,147.883804 483.154572,123.649147 461.747711,102.151962 
	C441.809875,82.129974 418.870392,66.467407 393.401398,54.570339 
	C381.732666,49.119637 369.502655,44.995979 357.010864,41.457993 
	C344.336365,37.868275 331.337982,36.432781 318.562256,33.664494 
	C314.245300,32.729076 309.602661,33.232792 305.107910,33.195908 
	C297.609100,33.134373 290.104614,33.336945 282.611237,33.123463 
	C268.699310,32.727131 255.270752,35.629551 241.758057,38.371887 
	C223.798233,42.016758 206.730988,48.064888 190.208542,55.872963 
	C164.396881,68.070869 141.682861,84.522758 121.630295,104.824203 
	C102.170464,124.525543 86.962616,147.120438 74.959488,171.955276 
	C70.054054,182.104767 66.705261,192.881134 62.681961,203.817566 
M33.339638,285.181458 
	C36.258141,291.055328 39.176640,296.929199 42.175945,302.965668 
	C43.989601,301.090668 51.135342,288.648315 51.581203,286.777374 
	C52.258419,283.935516 51.478966,282.238129 48.184074,282.305054 
	C44.353363,282.382843 40.519489,282.293243 36.687065,282.303894 
	C35.147667,282.308167 33.592155,282.359955 33.339638,285.181458 
z"/>
</svg>