<svg width="576" height="544" viewBox="0 0 576 544" fill="none" xmlns="http://www.w3.org/2000/svg">
<g clip-path="url(#clip0_1_21)">
<g filter="url(#filter0_d_1_21)">
<path d="M567.661 277.9C562.483 280.47 557.052 279.58 551.743 279.502C547.913 279.447 546.471 280.86 546.031 284.659C544.559 297.365 543.157 310.099 541.03 322.701C539.711 330.52 537.585 338.282 535.006 345.778C531.235 356.738 527.331 367.644 522.378 378.187C512.736 398.712 500.609 417.459 486.072 434.671C462.618 462.439 434.494 483.942 401.846 499.116C390.771 504.264 379.166 508.133 367.412 511.718C345.19 518.495 322.427 521.167 299.559 521.939C286.339 522.385 272.907 520.32 259.665 518.106C248.799 516.29 238.13 513.69 227.563 510.749C219.424 508.484 211.474 505.33 203.686 501.975C185.095 493.965 167.686 483.743 151.619 471.281C125.414 450.956 103.691 426.568 87.0587 397.456C81.2095 387.219 76.17 376.631 71.3509 365.903C67.4187 357.149 72.5123 348.51 80.9251 349.47C85.1869 349.956 87.4627 352.889 89.0569 356.618C93.9967 368.173 99.3716 379.501 105.82 390.28C123.289 419.484 145.919 443.711 173.975 462.419C186.89 471.031 200.43 478.621 215.006 484.227C227.113 488.883 239.375 492.588 251.965 495.742C274.326 501.343 296.906 501.666 319.529 500.496C328.485 500.033 337.546 498.168 346.481 496.182C355.196 494.245 363.83 492.026 372.188 489.056C381.746 485.66 391.14 481.598 400.221 477.033C426.027 464.061 448.522 446.541 467.839 424.753C482.251 408.497 494.04 390.55 503.605 370.902C511.892 353.88 517.944 336.128 521.892 317.684C524.197 306.915 526.275 295.997 526.003 284.792C525.906 280.833 524.773 279.217 520.811 279.534C517.52 279.798 514.168 279.324 510.884 279.632C499.922 280.657 497.907 270.447 501.143 263.695C509.265 246.749 517.559 229.887 525.949 213.077C527.848 209.273 530.767 206.125 535.384 206.004C539.794 205.888 542.553 208.577 544.545 212.38C552.508 227.576 562.101 247.113 569.554 262.92C571.92 269.671 571.447 273.047 567.661 277.9ZM544.094 259.229C543.592 252.033 538.654 246.978 535.739 239.597C531.558 246.621 528.25 252.617 526.015 259.807C532.298 260.066 537.884 260.429 544.094 259.229Z" fill="#757575"/>
<path d="M544.189 259.72L544.624 259.636L544.593 259.194C544.334 255.488 542.933 252.349 541.262 249.246C540.825 248.435 540.372 247.629 539.914 246.816C538.61 244.496 537.273 242.119 536.204 239.413L535.83 238.467L535.309 239.341C531.126 246.37 527.791 252.409 525.538 259.659L525.345 260.28L525.995 260.307C526.484 260.327 526.97 260.348 527.453 260.369C533.146 260.613 538.4 260.838 544.189 259.72ZM567.337 277.502C564.867 278.705 562.326 279.108 559.734 279.194C558.092 279.249 556.47 279.178 554.831 279.107C553.814 279.062 552.79 279.018 551.75 279.002C549.788 278.974 548.312 279.317 547.278 280.267C546.249 281.212 545.759 282.666 545.534 284.601C545.402 285.742 545.271 286.883 545.139 288.025C543.805 299.595 542.471 311.162 540.537 322.618C539.223 330.405 537.106 338.139 534.533 345.615C530.763 356.574 526.866 367.457 521.925 377.974C512.303 398.459 500.199 417.169 485.69 434.348C462.282 462.061 434.217 483.52 401.635 498.663C390.592 503.795 379.015 507.657 367.266 511.24C345.1 517.999 322.384 520.668 299.542 521.439C286.378 521.883 272.992 519.827 259.747 517.613C248.905 515.801 238.254 513.205 227.697 510.267C219.591 508.011 211.664 504.867 203.884 501.516C185.331 493.523 167.959 483.322 151.926 470.886C125.769 450.598 104.091 426.26 87.4928 397.208C81.6554 386.991 76.6236 376.42 71.807 365.698C69.899 361.451 70.1979 357.274 71.9402 354.296C73.676 351.329 76.8633 349.51 80.8684 349.967C84.8639 350.423 87.0301 353.15 88.5971 356.815C93.5416 368.381 98.9266 379.731 105.391 390.537C122.896 419.801 145.577 444.084 173.698 462.835C186.633 471.461 200.207 479.071 214.827 484.693C226.957 489.358 239.238 493.069 251.843 496.227C274.276 501.846 296.913 502.166 319.555 500.995C328.557 500.53 337.655 498.656 346.589 496.67C355.314 494.731 363.97 492.507 372.355 489.528C381.934 486.124 391.347 482.053 400.446 477.479C426.311 464.478 448.855 446.918 468.213 425.085C482.657 408.792 494.471 390.807 504.055 371.12C512.359 354.061 518.424 336.271 522.381 317.789C524.686 307.019 526.776 296.049 526.502 284.78C526.454 282.789 526.149 281.226 525.224 280.221C524.275 279.189 522.801 278.873 520.771 279.036C519.2 279.162 517.611 279.117 515.99 279.071L515.859 279.067C514.203 279.02 512.514 278.977 510.837 279.134C508.175 279.383 506.098 278.947 504.522 278.085C502.948 277.224 501.84 275.921 501.145 274.375C499.747 271.265 500.027 267.181 501.594 263.911C509.714 246.968 518.007 230.109 526.397 213.3C528.261 209.566 531.052 206.617 535.397 206.503C539.532 206.395 542.151 208.888 544.102 212.612C552.057 227.792 561.641 247.311 569.091 263.109C570.258 266.447 570.699 268.884 570.418 271.058C570.142 273.2 569.158 275.151 567.337 277.502Z" stroke="#757575"/>
</g>
<path d="M373.172 378C373.178 388.665 373.099 398.83 373.208 408.993C373.342 421.488 367.885 430.59 356.983 436.554C352.576 438.964 347.695 439.257 342.918 439.275C312.759 439.392 282.599 439.369 252.439 439.278C236.827 439.232 228.704 431.138 223.555 418.287C222.785 416.363 222.843 414.035 222.833 411.892C222.762 395.396 222.708 378.899 222.802 362.403C222.82 359.23 222.054 356.678 219.985 354.213C215.569 348.951 213.419 342.959 213.702 335.851C214.052 327.068 212.77 318.092 218.854 310.516C220.222 308.811 218.918 307.574 218.193 306.05C211.615 292.207 211.135 278.345 218.662 264.676C219.713 262.767 219.727 261.514 218.456 259.758C215.056 255.061 213.302 249.874 213.753 243.903C214.332 236.212 212.266 228.198 216.836 221.04C217.277 220.348 217.299 219.237 217.878 218.809C223.613 214.561 222.838 208.455 222.789 202.48C222.709 192.649 223.27 182.784 222.614 172.997C222.062 164.764 226.569 160.928 232.888 157.779C240.579 153.947 248.28 150.127 255.855 146.075C260.354 143.669 260.521 135.151 256.223 132.327C252.432 129.837 250.29 126.17 250.173 121.955C249.921 112.853 248.966 103.674 252.429 94.7793C255.915 85.8243 261.708 79.1499 271.164 77.2154C288.919 73.5826 306.891 73.7048 324.667 77.1137C333.59 78.8248 339.429 85.2104 343.068 93.2811C347.181 102.405 346.344 112.221 345.784 121.824C345.534 126.122 343.527 130.032 339.323 132.485C335.304 134.83 335.532 143.809 339.642 146.014C347.226 150.08 354.844 154.11 362.644 157.734C369.858 161.086 373.766 165.73 373.315 174.307C372.713 185.772 373.286 197.295 373.172 208.791C373.142 211.809 373.961 214.189 375.885 216.507C380.138 221.631 382.512 227.405 382.274 234.32C381.957 243.564 383.358 253.045 376.715 260.979C375.815 262.055 376.677 263.399 377.344 264.654C384.641 278.367 384.534 292.222 377.55 305.964C376.372 308.282 376.743 309.652 377.762 311.821C384.534 326.24 385.06 340.591 375.893 354.268C374.007 357.082 373.051 359.711 373.149 363.005C373.291 367.833 373.176 372.668 373.172 378ZM281.5 365.299C270.675 365.271 259.848 365.368 249.027 365.153C244.826 365.069 242.944 366.39 243.013 370.834C243.203 382.988 243.036 395.147 243.155 407.302C243.232 415.181 246.952 418.734 254.895 418.737C283.539 418.749 312.183 418.739 340.827 418.709C349.511 418.699 352.804 415.407 352.852 406.628C352.913 395.471 352.885 384.313 352.868 373.155C352.856 365.786 352.279 365.193 344.95 365.199C324.133 365.216 303.317 365.264 281.5 365.299ZM349.273 174.317C340.51 170.034 331.631 165.969 323.026 161.389C317.547 158.473 314.388 153.783 314.904 147.121C315.147 143.975 314.879 140.791 314.938 137.626C314.997 134.427 313.451 133.194 310.329 133.229C301.997 133.323 293.663 133.327 285.331 133.253C282.39 133.227 281.03 134.387 281.122 137.387C281.224 140.717 280.891 144.076 281.198 147.381C281.877 154.688 277.808 158.95 272.004 161.929C263.635 166.225 255.123 170.243 246.648 174.33C244.257 175.483 243.21 177.389 243.195 179.913C243.155 186.912 243.224 193.912 243.136 200.911C243.097 203.946 244.532 205.089 247.411 205.02C251.076 204.933 254.743 204.951 258.41 204.951C287.908 204.956 317.407 204.889 346.905 205.056C351.467 205.082 353.168 203.64 352.927 199.038C352.613 193.055 352.822 187.043 352.834 181.043C352.84 178.449 352.545 176.019 349.273 174.317ZM246.711 344.667C250.373 344.663 254.036 344.654 257.699 344.655C288.831 344.662 319.964 344.677 351.097 344.674C358.332 344.674 361.818 341.266 361.96 334.104C361.996 332.274 362.018 330.438 361.93 328.611C361.638 322.503 358.614 319.41 352.567 319.303C345.577 319.178 338.583 319.247 331.591 319.246C303.122 319.242 274.653 319.228 246.184 319.264C243.066 319.268 239.647 318.734 237.203 321.293C232.415 326.307 233.406 332.609 234.742 338.315C235.955 343.494 240.533 345.239 246.711 344.667ZM245.791 297.839C280.121 297.842 314.452 297.847 348.783 297.843C350.281 297.842 351.791 297.857 353.276 297.687C359.332 296.993 361.746 294.348 361.935 288.269C361.987 286.604 361.975 284.936 361.947 283.27C361.83 276.165 357.935 272.292 350.737 272.287C315.906 272.266 281.075 272.267 246.244 272.294C238.587 272.3 234.321 275.882 234.043 282.347C233.525 294.383 235.303 296.925 245.791 297.839ZM361.875 242.953C361.889 242.287 361.912 241.621 361.916 240.954C361.987 228.472 360.596 227.04 348.336 227.042C321.188 227.047 294.041 227.062 266.893 227.066C259.065 227.067 251.236 226.931 243.411 227.064C236.74 227.178 234.244 229.871 234.075 236.642C234.038 238.139 234.053 239.64 234.097 241.138C234.305 248.138 237.95 251.986 244.95 251.998C280.259 252.059 315.567 252.034 350.876 251.972C357.104 251.961 359.679 249.884 361.875 242.953ZM296.5 112.721C304.308 112.738 312.116 112.779 319.924 112.751C321.336 112.746 322.984 113.219 323.873 111.452C327.054 105.131 322.468 97.2475 315.433 97.184C304.469 97.085 293.504 97.1118 282.539 97.1548C273.459 97.1904 272.003 98.9141 272.008 108.029C272.01 111.827 273.481 112.918 277.061 112.79C283.201 112.571 289.353 112.723 296.5 112.721Z" fill="#757575"/>
<path d="M81.9389 195.827C81.3124 201.795 79.1121 206.995 77.9659 212.465C75.6692 223.424 73.9594 234.379 73.5074 245.572C73.3239 250.119 74.7758 252.087 79.4632 251.699C82.6359 251.437 85.8625 251.56 89.0479 251.77C97.1873 252.306 101.5 259.575 97.9289 266.877C89.6793 283.743 81.4098 300.602 72.9187 317.348C70.8976 321.334 68.0899 324.844 62.7689 324.995C57.0813 325.157 54.3867 321.206 52.3326 317.161C43.7907 300.339 35.4922 283.391 27.3011 266.394C23.902 259.341 27.3889 253.011 35.1302 252.008C39.2287 251.477 43.4251 251.504 47.5704 251.594C51.154 251.673 52.9521 250.1 53.286 246.652C53.6091 243.315 54.1252 239.976 54.1504 236.635C54.2293 226.171 57.3532 216.232 59.0767 206.051C60.544 197.382 63.3071 189.089 65.9729 180.798C68.4931 172.96 71.7036 165.307 75.0953 157.792C84.5183 136.913 96.6241 117.662 111.451 100.201C130.079 78.2637 151.606 59.6184 176.51 45.163C194.646 34.6366 213.871 26.6675 234.082 20.6377C255.536 14.2368 277.452 11.4646 299.502 11.0384C314.51 10.7483 329.69 12.1153 344.747 14.6351C354.978 16.3473 364.833 19.2358 374.83 21.5842C383.374 23.5912 391.631 27.0843 399.764 30.5164C414.219 36.6165 428.079 43.9562 441.083 52.7612C470.763 72.8582 495.619 97.6621 514.587 128.273C522.726 141.408 529.963 154.935 535.308 169.443C537.047 174.161 535.514 177.8 530.643 181.16C526.657 183.911 523.267 182.821 519.816 179.952C516.305 177.032 514.882 172.834 513.255 169.008C501.83 142.134 485.324 118.87 464.787 98.2334C445.659 79.0133 423.652 63.9781 399.218 52.5575C388.023 47.3251 376.29 43.3666 364.306 39.9703C352.147 36.5244 339.677 35.1464 327.42 32.489C323.279 31.591 318.825 32.0745 314.513 32.0391C307.319 31.9801 300.119 32.1745 292.93 31.9696C279.584 31.5891 266.701 34.3753 253.737 37.0078C236.507 40.5067 220.134 46.3126 204.283 53.8079C179.52 65.5173 157.729 81.3103 138.492 100.799C119.823 119.711 105.233 141.401 93.7175 165.241C89.0114 174.984 85.7987 185.329 81.9389 195.827ZM53.7891 273.932C56.589 279.571 59.3889 285.209 62.2663 291.004C64.0062 289.204 70.8616 277.26 71.2893 275.464C71.939 272.736 71.1912 271.107 68.0302 271.171C64.3552 271.246 60.6771 271.16 57.0005 271.17C55.5236 271.174 54.0313 271.224 53.7891 273.932Z" fill="#757575"/>
<g filter="url(#filter1_d_1_21)">
<path d="M563.661 277.9C558.483 280.47 553.052 279.58 547.743 279.502C543.913 279.447 542.471 280.86 542.031 284.659C540.559 297.365 539.157 310.099 537.03 322.701C535.711 330.52 533.585 338.282 531.006 345.778C527.235 356.738 523.331 367.644 518.378 378.187C508.736 398.712 496.609 417.459 482.072 434.671C458.618 462.439 430.494 483.942 397.846 499.116C386.77 504.264 375.166 508.133 363.412 511.718C341.19 518.495 318.427 521.167 295.559 521.939C282.339 522.385 268.907 520.32 255.665 518.106C244.799 516.29 234.13 513.69 223.563 510.749C215.424 508.484 207.474 505.33 199.686 501.975C181.095 493.965 163.686 483.743 147.619 471.281C121.414 450.956 99.6914 426.568 83.0587 397.456C77.2095 387.219 72.17 376.631 67.3509 365.903C63.4187 357.149 68.5123 348.51 76.9251 349.47C81.1869 349.956 83.4627 352.889 85.0569 356.618C89.9967 368.173 95.3716 379.501 101.82 390.28C119.289 419.484 141.919 443.711 169.975 462.419C182.89 471.031 196.43 478.621 211.006 484.227C223.113 488.883 235.375 492.588 247.965 495.742C270.326 501.343 292.906 501.666 315.529 500.496C324.485 500.033 333.546 498.168 342.481 496.182C351.196 494.245 359.83 492.026 368.188 489.056C377.746 485.66 387.14 481.598 396.221 477.033C422.027 464.061 444.522 446.541 463.839 424.753C478.251 408.497 490.04 390.55 499.605 370.902C507.892 353.88 513.944 336.128 517.892 317.684C520.197 306.915 522.275 295.997 522.003 284.792C521.906 280.833 520.773 279.217 516.811 279.534C513.52 279.798 510.168 279.324 506.884 279.632C495.922 280.657 493.907 270.447 497.143 263.695C505.265 246.749 513.559 229.887 521.95 213.077C523.848 209.273 526.767 206.125 531.384 206.004C535.794 205.888 538.553 208.577 540.545 212.38C548.508 227.576 558.101 247.113 565.554 262.92C567.92 269.671 567.447 273.047 563.661 277.9ZM540.094 259.229C539.592 252.033 534.654 246.978 531.739 239.597C527.558 246.621 524.25 252.617 522.015 259.807C528.298 260.066 533.884 260.429 540.094 259.229Z" fill="#757575"/>
<path d="M563.661 277.9C558.483 280.47 553.052 279.58 547.743 279.502C543.913 279.447 542.471 280.86 542.031 284.659C540.559 297.365 539.157 310.099 537.03 322.701C535.711 330.52 533.585 338.282 531.006 345.778C527.235 356.738 523.331 367.644 518.378 378.187C508.736 398.712 496.609 417.459 482.072 434.671C458.618 462.439 430.494 483.942 397.846 499.116C386.77 504.264 375.166 508.133 363.412 511.718C341.19 518.495 318.427 521.167 295.559 521.939C282.339 522.385 268.907 520.32 255.665 518.106C244.799 516.29 234.13 513.69 223.563 510.749C215.424 508.484 207.474 505.33 199.686 501.975C181.095 493.965 163.686 483.743 147.619 471.281C121.414 450.956 99.6914 426.568 83.0587 397.456C77.2095 387.219 72.17 376.631 67.3509 365.903C63.4187 357.149 68.5123 348.51 76.9251 349.47C81.1869 349.956 83.4627 352.889 85.0569 356.618C89.9967 368.173 95.3716 379.501 101.82 390.28C119.289 419.484 141.919 443.711 169.975 462.419C182.89 471.031 196.43 478.621 211.006 484.227C223.113 488.883 235.375 492.588 247.965 495.742C270.326 501.343 292.906 501.666 315.529 500.496C324.485 500.033 333.546 498.168 342.481 496.182C351.196 494.245 359.83 492.026 368.188 489.056C377.746 485.66 387.14 481.598 396.221 477.033C422.027 464.061 444.522 446.541 463.839 424.753C478.251 408.497 490.04 390.55 499.605 370.902C507.892 353.88 513.944 336.128 517.892 317.684C520.197 306.915 522.275 295.997 522.003 284.792C521.906 280.833 520.773 279.217 516.811 279.534C513.52 279.798 510.168 279.324 506.884 279.632C495.922 280.657 493.907 270.447 497.143 263.695C505.265 246.749 513.559 229.887 521.95 213.077C523.848 209.273 526.767 206.125 531.384 206.004C535.794 205.888 538.553 208.577 540.545 212.38C548.508 227.576 558.101 247.113 565.554 262.92C567.92 269.671 567.447 273.047 563.661 277.9ZM540.094 259.229C539.592 252.033 534.654 246.978 531.739 239.597C527.558 246.621 524.25 252.617 522.015 259.807C528.298 260.066 533.884 260.429 540.094 259.229Z" stroke="#757575" stroke-width="15"/>
</g>
<path d="M379.172 378C379.178 388.665 379.099 398.83 379.208 408.993C379.342 421.488 373.885 430.59 362.983 436.554C358.576 438.964 353.695 439.257 348.918 439.275C318.759 439.392 288.599 439.369 258.439 439.279C242.827 439.232 234.704 431.138 229.555 418.287C228.785 416.363 228.843 414.035 228.833 411.892C228.762 395.396 228.708 378.899 228.802 362.403C228.82 359.23 228.054 356.678 225.985 354.213C221.569 348.951 219.419 342.959 219.702 335.851C220.052 327.068 218.77 318.092 224.854 310.516C226.222 308.811 224.918 307.574 224.193 306.05C217.615 292.207 217.135 278.345 224.662 264.676C225.713 262.767 225.727 261.514 224.456 259.758C221.056 255.061 219.302 249.874 219.753 243.903C220.332 236.212 218.266 228.198 222.836 221.04C223.277 220.348 223.299 219.237 223.878 218.809C229.613 214.561 228.838 208.455 228.789 202.48C228.709 192.649 229.27 182.784 228.614 172.997C228.062 164.764 232.569 160.928 238.888 157.779C246.579 153.947 254.28 150.127 261.855 146.075C266.354 143.669 266.521 135.151 262.223 132.327C258.432 129.837 256.29 126.171 256.173 121.955C255.921 112.853 254.966 103.674 258.429 94.7793C261.915 85.8244 267.708 79.15 277.164 77.2154C294.919 73.5827 312.891 73.7048 330.667 77.1137C339.59 78.8249 345.429 85.2105 349.068 93.2811C353.181 102.405 352.344 112.221 351.784 121.824C351.534 126.122 349.527 130.032 345.323 132.485C341.304 134.83 341.532 143.809 345.642 146.014C353.226 150.08 360.844 154.11 368.644 157.734C375.858 161.086 379.766 165.73 379.315 174.307C378.713 185.772 379.286 197.295 379.172 208.791C379.142 211.809 379.961 214.189 381.885 216.507C386.138 221.631 388.512 227.405 388.274 234.32C387.957 243.564 389.358 253.045 382.715 260.979C381.815 262.055 382.677 263.399 383.344 264.654C390.641 278.367 390.534 292.222 383.55 305.964C382.372 308.282 382.743 309.652 383.762 311.821C390.534 326.24 391.06 340.591 381.893 354.268C380.007 357.082 379.051 359.711 379.149 363.005C379.291 367.833 379.176 372.668 379.172 378ZM287.5 365.299C276.675 365.271 265.848 365.369 255.027 365.153C250.826 365.069 248.944 366.39 249.013 370.834C249.203 382.988 249.036 395.147 249.155 407.302C249.232 415.181 252.952 418.734 260.895 418.737C289.539 418.75 318.183 418.739 346.827 418.709C355.511 418.699 358.804 415.407 358.852 406.628C358.913 395.471 358.885 384.313 358.868 373.155C358.856 365.786 358.279 365.193 350.95 365.199C330.133 365.216 309.317 365.264 287.5 365.299ZM355.273 174.317C346.51 170.034 337.631 165.969 329.026 161.389C323.547 158.473 320.388 153.783 320.904 147.121C321.147 143.975 320.879 140.791 320.938 137.626C320.997 134.427 319.451 133.194 316.329 133.229C307.997 133.323 299.663 133.328 291.331 133.253C288.39 133.227 287.03 134.387 287.122 137.387C287.224 140.717 286.891 144.076 287.198 147.381C287.877 154.688 283.808 158.95 278.004 161.929C269.635 166.225 261.123 170.243 252.648 174.33C250.257 175.483 249.21 177.389 249.195 179.913C249.155 186.912 249.224 193.912 249.136 200.911C249.097 203.946 250.532 205.089 253.411 205.02C257.076 204.933 260.743 204.951 264.41 204.951C293.908 204.956 323.407 204.889 352.905 205.056C357.467 205.082 359.168 203.64 358.927 199.038C358.613 193.055 358.822 187.043 358.834 181.043C358.84 178.449 358.545 176.019 355.273 174.317ZM252.711 344.667C256.373 344.663 260.036 344.654 263.699 344.655C294.831 344.662 325.964 344.677 357.097 344.674C364.332 344.674 367.818 341.266 367.96 334.104C367.996 332.274 368.018 330.438 367.93 328.611C367.638 322.503 364.614 319.41 358.567 319.303C351.577 319.178 344.583 319.247 337.591 319.246C309.122 319.242 280.653 319.228 252.184 319.264C249.066 319.268 245.647 318.734 243.203 321.293C238.415 326.307 239.406 332.609 240.742 338.315C241.955 343.494 246.533 345.239 252.711 344.667ZM251.791 297.839C286.121 297.842 320.452 297.847 354.783 297.843C356.281 297.842 357.791 297.857 359.276 297.687C365.332 296.993 367.746 294.348 367.935 288.269C367.987 286.604 367.975 284.936 367.947 283.27C367.83 276.165 363.935 272.292 356.737 272.287C321.906 272.266 287.075 272.267 252.244 272.294C244.587 272.3 240.321 275.882 240.043 282.347C239.525 294.383 241.303 296.925 251.791 297.839ZM367.875 242.953C367.889 242.287 367.912 241.621 367.916 240.954C367.987 228.472 366.596 227.04 354.336 227.042C327.188 227.047 300.041 227.062 272.893 227.066C265.065 227.067 257.236 226.931 249.411 227.064C242.74 227.178 240.244 229.871 240.075 236.642C240.038 238.139 240.053 239.64 240.097 241.138C240.305 248.138 243.95 251.986 250.95 251.998C286.259 252.059 321.567 252.034 356.876 251.972C363.104 251.961 365.679 249.884 367.875 242.953ZM302.5 112.721C310.308 112.738 318.116 112.779 325.924 112.751C327.336 112.747 328.984 113.219 329.873 111.452C333.054 105.131 328.468 97.2476 321.433 97.184C310.469 97.085 299.504 97.1118 288.539 97.1548C279.459 97.1904 278.003 98.9141 278.008 108.029C278.01 111.827 279.481 112.918 283.061 112.79C289.201 112.571 295.353 112.723 302.5 112.721Z" fill="#757575" stroke="#757575" stroke-width="15"/>
<path d="M81.9389 195.827C81.3124 201.795 79.1121 206.995 77.9659 212.465C75.6692 223.424 73.9594 234.379 73.5074 245.572C73.3239 250.119 74.7758 252.087 79.4632 251.699C82.6359 251.437 85.8625 251.56 89.0479 251.77C97.1873 252.306 101.5 259.575 97.9289 266.877C89.6793 283.743 81.4098 300.602 72.9187 317.348C70.8976 321.334 68.0899 324.844 62.7689 324.995C57.0813 325.157 54.3867 321.206 52.3326 317.161C43.7907 300.339 35.4922 283.391 27.3011 266.394C23.902 259.341 27.3889 253.011 35.1302 252.008C39.2287 251.477 43.4251 251.504 47.5704 251.594C51.154 251.673 52.9521 250.1 53.286 246.652C53.6091 243.315 54.1252 239.976 54.1504 236.635C54.2293 226.171 57.3532 216.232 59.0767 206.051C60.544 197.382 63.3071 189.089 65.9729 180.798C68.4931 172.96 71.7036 165.307 75.0953 157.792C84.5183 136.913 96.6241 117.662 111.451 100.201C130.079 78.2637 151.606 59.6184 176.51 45.163C194.646 34.6366 213.871 26.6675 234.082 20.6377C255.536 14.2368 277.452 11.4646 299.502 11.0384C314.51 10.7483 329.69 12.1153 344.747 14.6351C354.978 16.3473 364.833 19.2358 374.83 21.5842C383.374 23.5912 391.631 27.0843 399.764 30.5164C414.219 36.6165 428.079 43.9562 441.083 52.7612C470.763 72.8583 495.619 97.6621 514.587 128.273C522.726 141.408 529.963 154.935 535.308 169.443C537.047 174.161 535.514 177.8 530.643 181.16C526.657 183.911 523.267 182.821 519.816 179.952C516.305 177.032 514.882 172.834 513.255 169.008C501.83 142.134 485.324 118.87 464.787 98.2334C445.659 79.0133 423.652 63.9781 399.218 52.5575C388.023 47.3251 376.29 43.3666 364.306 39.9703C352.147 36.5244 339.677 35.1464 327.42 32.489C323.279 31.591 318.825 32.0745 314.513 32.0391C307.319 31.9801 300.119 32.1745 292.93 31.9696C279.584 31.5891 266.701 34.3753 253.737 37.0078C236.507 40.5067 220.134 46.3126 204.283 53.8079C179.52 65.5173 157.729 81.3103 138.492 100.799C119.823 119.711 105.233 141.401 93.7175 165.241C89.0114 174.984 85.7987 185.329 81.9389 195.827ZM53.7891 273.932C56.589 279.571 59.3889 285.209 62.2663 291.004C64.0062 289.204 70.8616 277.26 71.2893 275.464C71.939 272.736 71.1912 271.107 68.0302 271.171C64.3552 271.246 60.6771 271.16 57.0005 271.17C55.5236 271.174 54.0313 271.224 53.7891 273.932Z" fill="#757575" stroke="#757575" stroke-width="15"/>
</g>
<defs>
<filter id="filter0_d_1_21" x="66" y="206" width="509" height="324" filterUnits="userSpaceOnUse" color-interpolation-filters="sRGB">
<feFlood flood-opacity="0" result="BackgroundImageFix"/>
<feColorMatrix in="SourceAlpha" type="matrix" values="0 0 0 0 0 0 0 0 0 0 0 0 0 0 0 0 0 0 127 0" result="hardAlpha"/>
<feOffset dy="4"/>
<feGaussianBlur stdDeviation="2"/>
<feComposite in2="hardAlpha" operator="out"/>
<feColorMatrix type="matrix" values="0 0 0 0 0 0 0 0 0 0 0 0 0 0 0 0 0 0 0.25 0"/>
<feBlend mode="normal" in2="BackgroundImageFix" result="effect1_dropShadow_1_21"/>
<feBlend mode="normal" in="SourceGraphic" in2="effect1_dropShadow_1_21" result="shape"/>
</filter>
<filter id="filter1_d_1_21" x="54.5005" y="198.5" width="523.999" height="339" filterUnits="userSpaceOnUse" color-interpolation-filters="sRGB">
<feFlood flood-opacity="0" result="BackgroundImageFix"/>
<feColorMatrix in="SourceAlpha" type="matrix" values="0 0 0 0 0 0 0 0 0 0 0 0 0 0 0 0 0 0 127 0" result="hardAlpha"/>
<feOffset dy="4"/>
<feGaussianBlur stdDeviation="2"/>
<feComposite in2="hardAlpha" operator="out"/>
<feColorMatrix type="matrix" values="0 0 0 0 0 0 0 0 0 0 0 0 0 0 0 0 0 0 0.25 0"/>
<feBlend mode="normal" in2="BackgroundImageFix" result="effect1_dropShadow_1_21"/>
<feBlend mode="normal" in="SourceGraphic" in2="effect1_dropShadow_1_21" result="shape"/>
</filter>
<clipPath id="clip0_1_21">
<rect width="576" height="544" fill="#757575"/>
</clipPath>
</defs>
</svg>
