<?xml version="1.0" encoding="UTF-8"?>
<svg version="1.1" xmlns="http://www.w3.org/2000/svg" width="382" height="385">
<path d="M0 0 C4.11809373 3.90690944 6.85372778 8.81384844 9.84765625 13.609375 C12.94815894 18.54015022 16.22306065 23.35741756 19.47290039 28.19042969 C23.41241136 34.06653307 27.21843436 40.02128901 31 46 C31.8667334 47.3622168 31.8667334 47.3622168 32.75097656 48.75195312 C61.21128433 93.52275412 91.60261289 144.57104887 80.8215332 200.01660156 C80.02637822 203.40773733 79.07290259 206.68343793 78 210 C77.61457031 211.19238281 77.22914063 212.38476562 76.83203125 213.61328125 C69.8452487 233.21697211 56.81675303 248.17292867 38.13500977 257.31713867 C16.2276132 267.5024529 -13.09644829 269.04987112 -36 261 C-57.64587665 252.24584203 -73.76144101 237.43862248 -83.16308594 216.05810547 C-96.26597895 183.83599693 -90.10071494 146.28439136 -77.125 115.125 C-74.06975191 108.01203505 -70.60518144 101.16639206 -66.859375 94.39453125 C-65.55935062 92.02116741 -64.33557315 89.6666764 -63.15234375 87.23828125 C-60.62318095 82.13774176 -57.72087335 77.2662973 -54.8125 72.375 C-53.94105347 70.90716064 -53.94105347 70.90716064 -53.05200195 69.40966797 C-48.53070653 61.82721574 -43.88299527 54.35581647 -39 47 C-38.15163574 45.72116943 -38.15163574 45.72116943 -37.28613281 44.41650391 C-33.92159905 39.3507141 -30.54688774 34.29187276 -27.1640625 29.23828125 C-24.41093609 25.12274984 -21.67738712 20.99529542 -18.9609375 16.85546875 C-18.00707153 15.40732788 -18.00707153 15.40732788 -17.03393555 13.92993164 C-15.82767901 12.09749989 -14.62581868 10.26216455 -13.42895508 8.42358398 C-12.88907959 7.60575439 -12.3492041 6.7879248 -11.79296875 5.9453125 C-11.3239917 5.22875488 -10.85501465 4.51219727 -10.37182617 3.77392578 C-7.39965546 -0.06942578 -4.62991376 -0.7407862 0 0 Z M-52 152 C-56.96712243 167.14689611 -56.14979224 189.3567447 -50 204 C-47.76617887 208.13142939 -45.31946302 211.68053698 -42 215 C-39.04253508 215.58345476 -39.04253508 215.58345476 -36 215 C-33.93297983 212.9505129 -33.93297983 212.9505129 -33 210 C-33.92042769 207.45112332 -34.819393 205.53773694 -36.1875 203.25 C-41.30226815 194.43624748 -42.32896043 186.36618896 -42.1875 176.25 C-42.18105469 175.29077637 -42.17460938 174.33155273 -42.16796875 173.34326172 C-42.09088989 166.19540149 -41.75141741 159.11162907 -41 152 C-45.80336626 148.96629499 -47.61725856 147.8711001 -52 152 Z " fill="#73C2F1" transform="translate(165,68)"/>
<path d="M0 0 C3.75 0.4375 3.75 0.4375 6.25 2.75 C7.11770632 3.95514766 7.94635426 5.18872113 8.75 6.4375 C9.28367188 7.26121094 9.81734375 8.08492187 10.3671875 8.93359375 C11.56426955 10.8090223 12.75140312 12.69082968 13.9296875 14.578125 C15.63408201 17.25541423 17.41259221 19.85029801 19.25 22.4375 C22.29419759 26.73598836 25.13277787 31.13624518 27.9375 35.59375 C29.80996596 38.53158452 31.74104424 41.42322973 33.6875 44.3125 C37.8859026 50.58168144 41.84086849 56.98497958 45.75 63.4375 C46.26304687 64.27925781 46.77609375 65.12101562 47.3046875 65.98828125 C51.58748034 73.060677 55.71204876 80.22305258 59.75 87.4375 C60.08290039 88.03191895 60.41580078 88.62633789 60.75878906 89.23876953 C74.419838 113.8032852 85.74805834 140.96565775 86.75 169.4375 C86.8015625 170.52289063 86.853125 171.60828125 86.90625 172.7265625 C87.5150293 196.41822364 81.91721305 221.41004277 65.75 239.4375 C65.07195312 240.19675781 64.39390625 240.95601562 63.6953125 241.73828125 C55.30285814 250.62353098 44.8906977 256.55562123 33.75 261.4375 C33.09 261.4375 32.43 261.4375 31.75 261.4375 C32.45012454 255.41957556 34.00323211 249.95039788 35.84570312 244.19335938 C39.29919203 232.98248399 40.11150564 222.00466924 40.0625 210.3125 C40.06100952 209.63251953 40.05951904 208.95253906 40.0579834 208.25195312 C40.01517279 197.36400166 39.24945697 187.03864508 36.75 176.4375 C36.4715625 175.1896875 36.193125 173.941875 35.90625 172.65625 C33.63187937 163.32348778 30.29815154 154.48874072 26.64697266 145.61914062 C26.07696359 144.23274948 25.51337938 142.84368589 24.95849609 141.45117188 C18.21709627 124.543481 8.70695072 108.7937181 -0.99462891 93.43554688 C-2.61610363 90.85480997 -4.21944268 88.26302749 -5.82421875 85.671875 C-7.15342076 83.53111023 -8.4828503 81.39048673 -9.8125 79.25 C-10.75101807 77.73418335 -10.75101807 77.73418335 -11.70849609 76.18774414 C-16.37900206 68.69468142 -21.35501684 61.47338798 -26.5 54.30078125 C-31.159138 47.50967162 -31.159138 47.50967162 -31.5625 42.75 C-30.40653306 39.83255962 -29.43021653 38.21717995 -27.53515625 35.8125 C-24.17780382 31.42374154 -21.27271054 26.82514841 -18.375 22.125 C-5.00043165 0.67313503 -5.00043165 0.67313503 0 0 Z " fill="#75C3F1" transform="translate(218.25,33.5625)"/>
</svg>
